<?xml version="1.0" encoding="utf-8"?>
<!-- Generator: Adobe Illustrator 23.0.6, SVG Export Plug-In . SVG Version: 6.00 Build 0)  -->
<svg version="1.1" id="Layer_1" xmlns="http://www.w3.org/2000/svg" xmlns:xlink="http://www.w3.org/1999/xlink" x="0px" y="0px"
	 viewBox="0 0 449.2 489.2" style="enable-background:new 0 0 449.2 489.2;" xml:space="preserve">
<style type="text/css">
	.st0{fill:#1F4774;}
</style>
<g>
	<path class="st0" d="M251.9,237.2c-16.6,0-30.1,13.5-30.1,30.1c0,8.1,3.1,15.6,8.8,21.3s13.3,8.8,21.3,8.8
		c16.6,0,30.1-13.5,30.1-30.1C282,250.8,268.5,237.2,251.9,237.2z M251.9,279c-3.1,0-6-1.2-8.2-3.4c-2.2-2.2-3.4-5.1-3.4-8.2
		c0-6.4,5.2-11.6,11.6-11.6c6.4,0,11.6,5.2,11.6,11.6C263.5,273.8,258.3,279,251.9,279z"/>
	<path class="st0" d="M374.3,297.5c16.6,0,30.1-13.5,30.1-30.1c0-16.6-13.5-30.1-30.1-30.1c-16.6,0-30.1,13.5-30.1,30.1
		C344.2,284,357.7,297.5,374.3,297.5z M374.3,255.8c6.4,0,11.6,5.2,11.6,11.6c0,6.4-5.2,11.6-11.6,11.6c-6.4,0-11.6-5.2-11.6-11.6
		C362.7,261,367.9,255.8,374.3,255.8z"/>
	<path class="st0" d="M449.1,9.2c0-5.1-4.2-9.2-9.3-9.2c0,0,0,0,0,0c-18.7,0-36.1,7.3-49.1,20.6c-4.7,4.9-8.7,10.3-11.7,16.2
		c-16.4,1.1-31.6,8-43.3,19.7c-7.7,7.6-13.2,16.8-16.5,26.8c-16.8,1.4-32.5,8.6-44.6,20.7c-11,11-18,25-20.2,40.1
		c-23.6,11.6-43.3,30-56.6,52.6l0.2-187c0-2.5-1-4.8-2.7-6.6c-1.7-1.7-4.1-2.7-6.6-2.7c0,0,0,0,0,0c-18.7,0-36.2,7.3-49.1,20.6
		c-4.3,4.4-7.9,9.3-10.9,14.6c-17.6,0.3-34.1,7.3-46.6,19.8C74.6,63.2,69,72.3,65.8,82.3c-16.9,1.3-32.6,8.5-44.6,20.6
		C7.7,116.4,0.2,134.3,0.2,153.3L0,265.4c0,59.8,23.3,116,65.5,158.2c42.3,42.3,98.5,65.5,158.2,65.5s116-23.3,158.2-65.5
		s65.5-98.5,65.5-158.2L449.2,51L449.1,9.2z M303.6,318.3h-0.4l6.8,8.9c1.4,1.9,4.3,1.9,5.7,0l6.8-8.9h-0.4l0-50.3
		c0.2-0.7,0.4-1.5,0.4-2.3c0.4-13.4,5.9-26,15.6-35.4c9.7-9.4,22.4-14.6,35.9-14.6c13.8,0,26.7,5.4,36.4,15.1
		c9.5,9.5,14.9,22.2,15.1,35.6c0,0.3,0,0.5,0,0.8c0,33.1-14.4,62.9-37.3,83.4c-20.2,17.2-46.3,27.6-74.8,27.6
		c-30.8,0-58.9-12.1-79.6-31.9c-20.2-20.3-32.7-48.2-32.8-79.1c0,0,0-0.1,0-0.1c0,0,0,0,0,0c0,0,0,0,0,0c0-28.4,23.1-51.5,51.5-51.5
		c13.5,0,26.2,5.2,35.9,14.6c8.5,8.2,13.8,18.9,15.2,30.4L303.6,318.3z M404,33.5c7.3-7.5,16.5-12.3,26.6-14.2l0.1,31.6l-1.1,146.2
		c-5.8-10-12.9-19.2-21.3-27.6c-5.9-5.9-12.2-11.1-18.9-15.7l0-83.7C389.4,56.2,394.6,43.2,404,33.5z M348.8,69.6
		c6.5-6.5,14.6-11,23.4-13.1c-0.8,4.4-1.3,9-1.3,13.6l0,73c-11.3-5.3-23.3-9.1-35.7-11.1l-0.6-32C335.6,88.6,340.5,77.9,348.8,69.6z
		 M315.9,102.4c0,0.7,0,1.3,0,2h0.3l0.5,26c-1,0-2.1,0-3.1,0c0,0,0,0,0,0c-13.1,0-25.9,1.9-37.9,5.5
		C282.1,118.6,297.4,105.7,315.9,102.4z M313.5,148.9c30.9,0,59.9,12,81.7,33.8c8.5,8.5,15.5,18.1,20.9,28.5
		c-12.1-9.1-26.7-14-42.1-14c0,0,0,0,0,0c-18.3,0-35.7,7-48.8,19.8c-4.7,4.6-8.7,9.8-11.9,15.3c-3.2-5.6-7.2-10.7-11.9-15.3
		c-13.1-12.8-30.5-19.8-48.8-19.8c0,0,0,0,0,0c-15.4,0-29.7,5-41.3,13.5C230.7,174,269.2,148.9,313.5,148.9z M223.8,470.7
		c-113.2,0-205.3-92.1-205.3-205.2l0.2-112.1c0-14.1,5.5-27.3,15.4-37.3c7.8-7.8,17.6-12.8,28.3-14.7c0,0.7,0,1.4,0,2l0.5,168.4
		c0,20.2,3.2,40,9.6,58.9c1.3,3.9,4.9,6.3,8.8,6.3c1,0,2-0.2,2.9-0.5c4.9-1.6,7.5-6.9,5.8-11.7c-5.7-17.1-8.6-34.9-8.6-53.1
		l-0.5-168.4c0-13.1,5.1-25.5,14.4-34.8c7.2-7.2,16.3-11.9,26.2-13.7c-1.1,5.1-1.7,10.3-1.7,15.6L119,264.4c0,9.3,0.8,18.7,2.4,27.8
		c0.9,5,5.7,8.4,10.7,7.5c5-0.9,8.4-5.7,7.5-10.7c-1.4-8.1-2.1-16.4-2.1-24.6l0.9-193.8c0-13.9,5.2-26.9,14.6-36.6
		c7.3-7.5,16.5-12.3,26.5-14.2l-0.3,242.8c0,5,0.3,9.9,0.8,14.7c2.9,30.9,16.4,59.6,38.6,81.9c25.3,25.3,59,39.3,94.8,39.3
		c0,0,0,0,0,0c34,0,66-12.5,90.8-35.4C369.5,427.1,301.7,470.7,223.8,470.7z"/>
</g>
</svg>
