<svg viewBox="0 0 63 46" xmlns="http://www.w3.org/2000/svg" xmlns:xlink="http://www.w3.org/1999/xlink">
  <style>
    .favicon {
    fill: #000;
    }

    @media (prefers-color-scheme: dark) {
    .favicon {
    fill: #FFF;
    }
    }
  </style>
  <path class="favicon" transform="translate(-25.000000, -5)" d="M42.5117791,44.1343284 C44.8733129,44.1343284 46.4,45.6052687 46.4,47.5671642 C46.4,49.5290597 44.8733129,51 42.5117791,51 L40.1,51 L40.1,44.1343284 L42.5117791,44.1343284 Z M49.2,44.1343284 L49.2,51 L47.1,51 L47.1,44.1343284 L49.2,44.1343284 Z M53.8318894,44.1343284 C54.7974067,44.1343284 55.731006,44.4050048 56.4332003,45.010369 L55.4477344,46.2777932 C54.9589912,45.933961 54.3804788,45.7272959 53.8019664,45.7272959 C52.6329724,45.7272959 51.8609575,46.5374963 51.8609575,47.5726509 C51.8609575,48.6535278 52.6948133,49.4728727 53.8119407,49.4728727 C54.2587917,49.4728727 54.7255913,49.3521657 55.1724423,49.0906337 L55.1724423,48.2987222 L53.5067256,48.2987222 L53.5067256,47.1154271 L56.9,47.1154271 L56.9,49.6210132 C56.0880878,50.5427763 54.9689655,51 53.7600741,51 C51.6175834,50.9981711 49.9,49.5643175 49.9,47.5616775 C49.9,45.5773265 51.5976347,44.1343284 53.8318894,44.1343284 Z M59.7,44.1343284 L59.7,51 L57.6,51 L57.6,44.1343284 L59.7,44.1343284 Z M66.7,44.1343284 L66.7,45.7038999 L64.5206278,45.7038999 L64.5206278,51 L62.5672646,51 L62.5672646,45.7038999 L60.4,45.7038999 L60.4,44.1343284 L66.7,44.1343284 Z M68.8768918,44.1343284 L72.3,51 L70.386249,51 L70.0672905,50.2286183 L67.5232167,50.2286183 L67.2042582,51 L65.3,51 L68.7231082,44.1343284 L68.8768918,44.1343284 Z M74.8083111,44.1343284 L74.8083111,49.4304285 L77.9,49.4304285 L77.9,51 L73,51 L73,44.1343284 L74.8083111,44.1343284 Z M42.4228834,45.6938331 L41.9706748,45.6938331 L41.9706748,49.4308687 L42.4228834,49.4308687 C43.7311963,49.4308687 44.5003374,48.6260872 44.5003374,47.5575376 C44.5003374,46.4793615 43.7331288,45.6938331 42.4228834,45.6938331 Z M68.7990507,47.186154 L68.0832926,48.8936786 L69.505316,48.8936786 L68.7990507,47.186154 Z M56.6313051,5 L56.6313051,21.2935535 C56.8019905,21.2859574 56.9746155,21.2821594 57.1472404,21.2821594 C62.8244684,21.2821594 67.4,25.3669419 67.4,31.0051191 C67.4,36.6432963 62.8264081,40.7014925 57.1472404,40.7014925 C51.4971669,40.7014925 46.8944809,36.6432963 46.8944809,31.0051191 C46.8944809,26.8602841 49.3808885,23.5569157 52.9435345,22.0961716 L53.1225571,22.0246745 L44.5650136,15.2110067 L44.5650136,33.7453985 C44.5650136,37.8567672 41.3627234,40.7014925 37.4059263,40.7014925 C35.836363,40.7014925 34.3395588,40.2427995 33.2465174,39.4882827 L33.1,39.3835757 L34.6342287,35.8267196 C35.2801176,36.2748873 36.1141484,36.485678 36.7600373,36.485678 C38.1755521,36.485678 39.3866699,35.5103206 39.4478479,33.8758031 L39.4502714,33.7453985 L39.4502714,23.9711654 L39.4405734,23.9711654 L39.4405734,5 L39.9468107,5.40449031 L51.625181,14.9945189 L51.625181,5 L56.6313051,5 Z M71.5774239,22.1641791 L75.436666,30.2309292 L79.3225761,22.1641791 L84.9,22.1641791 L77.9491736,33.9540446 L77.9491736,40.7014925 L72.9279682,40.7014925 L72.9279682,33.9540446 L72.9241584,33.9540446 L66,22.1641791 L71.5774239,22.1641791 Z M84.5508829,35.2089552 C85.9228829,35.2089552 87,36.3002672 87,37.6119403 C87,38.946349 85.9228829,40.0149254 84.5508829,40.0149254 C83.2036036,40.0149254 82.1,38.946349 82.1,37.6119403 C82.1,36.3020161 83.2018378,35.2089552 84.5508829,35.2089552 Z M84.5508829,35.5972105 C83.4243243,35.5972105 82.492,36.5188794 82.492,37.6119403 C82.492,38.7277369 83.4225586,39.6266701 84.5508829,39.6266701 C85.7021622,39.6266701 86.608,38.7277369 86.608,37.6119403 C86.608,36.4961437 85.6774414,35.5972105 84.5508829,35.5972105 Z M84.5508829,35.9854657 C85.4567207,35.9854657 86.216,36.713007 86.216,37.6119403 C86.216,38.5108736 85.4814414,39.2384149 84.5508829,39.2384149 C83.6432793,39.2384149 82.884,38.5108736 82.884,37.6119403 C82.884,36.7147559 83.6432793,35.9854657 84.5508829,35.9854657 Z M84.5508829,36.3737209 C83.864,36.3737209 83.276,36.9316192 83.276,37.6119403 C83.276,38.2922614 83.864,38.8501597 84.5508829,38.8501597 C85.236,38.8501597 85.824,38.316746 85.824,37.6119403 C85.824,36.9333681 85.236,36.3737209 84.5508829,36.3737209 Z M84.5508829,36.7619761 C85.04,36.7619761 85.432,37.1502314 85.432,37.634676 C85.432,38.0963849 85.04,38.4601681 84.5508829,38.4601681 C84.06,38.4619045 83.668,38.0981338 83.668,37.6119403 C83.668,37.1502314 84.06,36.7619761 84.5508829,36.7619761 Z M84.5508829,37.1502314 C84.2807207,37.1502314 84.06,37.3688436 84.06,37.6119403 C84.06,37.855037 84.256,38.0736492 84.5508829,38.0736492 C84.8192793,38.0736492 85.04,37.8795216 85.04,37.6119403 C85.04,37.3688436 84.8192793,37.1502314 84.5508829,37.1502314 Z M57.1472404,25.7904224 C54.3755429,25.7904224 52.0887469,27.9249158 52.0887469,31.0070181 C52.0887469,34.0625341 54.3755429,36.1970276 57.1472404,36.1970276 C59.9460925,36.1970276 62.1785795,34.0625341 62.1805191,31.0070181 C62.1805191,27.9249158 59.9460925,25.7904224 57.1472404,25.7904224 Z M37.0308241,5 L37.0308241,9.11940299 L29.1046593,9.11940299 L29.1046593,12.4149254 L35.9560571,12.4149254 L35.9560571,16.1743445 L29.1046593,16.1743445 L29.1046593,19.4179104 L37.3,19.4179104 L37.3,23.5373134 L24,23.5373134 L24,5 L37.0308241,5 Z" id="logo"></path>
</svg>