<svg xmlns="http://www.w3.org/2000/svg" width="167" height="40" viewBox="0 0 167 40" fill="none">
<g clip-path="url(#clip0_8503_1809)">
<path d="M97.2578 39.9922L97.25 40V39.9922H97.2578ZM81.3662 0C89.9238 0 96.8764 6.78107 97.2188 15.25L97.25 39.9922H88.6807V30C86.4899 31.1408 84.0089 31.7939 81.3701 31.7939C75.4322 31.7939 70.2574 28.5321 67.5322 23.7031C66.5924 28.8865 61.5514 32.0107 55.6367 32.0107C51.7983 32.0107 46.2771 30.5195 44.2715 25.1865V31.2783H35.5566V15.6074C35.5566 13.2462 35.497 9.14551 31.0342 9.14551C26.5718 9.1458 26.5127 13.2424 26.5127 15.6074V31.2783H17.7588V15.6074C17.7588 13.2463 17.7035 9.14579 13.2373 9.14551C8.77061 9.14551 8.71485 13.2423 8.71484 15.6074V31.2783H0V15.1865C0 8.72536 0.425246 6.7809 3.15039 3.88867C5.51382 1.41784 9.93031 0.271484 13.2373 0.271484C16.0487 0.271577 19.6629 1.10615 22.1318 2.87305C24.6048 1.10606 28.2198 0.271484 31.0312 0.271484C34.3392 0.271595 38.7587 1.42083 41.1172 3.88867C42.8004 5.67968 43.6061 7.10397 43.9756 9.45703C44.3656 3.95925 49.5209 0.362485 55.415 0.362305C59.2971 0.362305 65.9819 1.90097 66.7686 9.61816C69.2028 3.96682 74.8231 8.89035e-05 81.3662 0ZM165.024 0.405273C166.114 0.405273 166.999 1.29057 166.999 2.38086V8.74219C166.999 9.83228 166.113 10.7178 165.024 10.7178H159.146C157.804 10.7178 156.719 11.8038 156.719 13.1455V19.0293C156.719 20.1195 155.834 21.0049 154.745 21.0049H148.866C147.525 21.0051 146.441 22.0912 146.44 23.4326V29.3164C146.44 30.4066 145.555 31.2919 144.466 31.292H138.11C137.02 31.2919 136.136 30.4066 136.136 29.3164V22.9561C136.136 21.8659 137.021 20.9806 138.11 20.9805H143.989C145.33 20.9805 146.416 19.8943 146.416 18.5527V12.6689C146.416 11.5787 147.302 10.6934 148.391 10.6934H154.27C155.611 10.6933 156.696 9.60635 156.696 8.26465V2.38184C156.696 1.29169 157.581 0.406488 158.67 0.40625H165.025L165.024 0.405273ZM118.135 0.40625C126.562 0.406358 133.649 7.04075 133.85 15.4707C134.054 24.156 127.059 31.283 118.427 31.2832H103.869V0.40625H118.135ZM165.018 20.9678C166.11 20.9678 166.996 21.8542 166.996 22.9473V29.3027C166.996 30.3959 166.111 31.2822 165.018 31.2822H158.666C157.573 31.282 156.688 30.3958 156.688 29.3027V22.9473C156.689 21.8544 157.574 20.968 158.666 20.9678H165.018ZM44.208 12.0273C44.2478 12.9477 44.2637 13.9915 44.2637 15.1914V22.1963H52.376C52.7494 24.9191 55.3605 24.9189 55.7383 24.9189C57.2289 24.9189 58.8291 24.0658 58.8291 22.625C58.8289 20.3301 56.6391 20.0633 50.9883 17.875C47.7947 16.8527 45.042 14.9438 44.208 12.0273ZM81.3623 8.26855C77.202 8.26869 73.836 11.6417 73.8359 15.8008C73.8359 19.9599 77.2058 23.3329 81.3623 23.333C85.5228 23.333 88.8896 19.9639 88.8896 15.8008C88.8895 11.6378 85.5227 8.26855 81.3623 8.26855ZM112.063 22.2354H118.427V22.2363C121.946 22.2362 124.812 19.3669 124.812 15.8447C124.812 12.3225 121.946 9.45328 118.427 9.45312H112.063V22.2354ZM55.3145 7.46484C53.447 7.46492 52.8059 8.63753 52.8057 9.43652C52.8057 11.0423 54.9881 11.9523 57.3398 12.6406L57.3408 12.6396H57.3447C60.353 13.4785 63.476 14.3474 65.4932 16.2959C65.4893 16.1631 65.4815 16.0332 65.4814 15.9033C65.4814 13.7072 65.9295 11.6138 66.7354 9.70898H58.0869C58.0355 9.06724 57.93 7.46484 55.3145 7.46484ZM143.173 0.405273C144.095 0.405273 144.844 1.15482 144.844 2.07812V7.43848C144.844 8.36275 144.096 9.11133 143.173 9.11133H137.816C136.893 9.11117 136.146 8.36168 136.146 7.43848V2.0791C136.146 1.15493 136.893 0.40641 137.816 0.40625H143.173V0.405273Z" fill="black"/>
</g>
<defs>
<clipPath id="clip0_8503_1809">
<rect width="167" height="40" fill="white"/>
</clipPath>
</defs>
</svg>