<svg width="58" height="57" viewBox="0 0 58 57" fill="none" xmlns="http://www.w3.org/2000/svg">
<path d="M19.842 0L38.288 3.77122C38.3031 3.77122 38.3182 3.79957 38.3031 3.81375L18.8148 18.048H18.7996L0.0213648 14.3476C0.00625761 14.3476 -0.0088496 14.3193 0.00625762 14.3051L19.8118 0.0141776C19.8269 5.38717e-08 19.8269 0 19.842 0Z" fill="#3741E7"/>
<path d="M38.2418 3.79982L18.7988 18.0482L18.8895 26.895C18.8895 26.9659 18.9801 27.0084 19.0405 26.9659L38.3476 12.76L38.2871 3.814C38.2871 3.79982 38.2569 3.78564 38.2418 3.79982Z" fill="#1926A3"/>
<path d="M18.8906 27.0221L38.2128 12.8588C38.3034 12.7879 38.3336 12.7454 38.3487 12.7596L47.4584 14.3191C47.7605 14.39 47.5339 14.6168 47.4886 14.6593L28.0456 29.2622C28.0305 29.2764 28.0003 29.2764 27.9852 29.2764L19.0417 27.1639C18.9662 27.1356 18.9511 27.0647 18.8906 27.0221Z" fill="#3741E7"/>
<path d="M27.9707 29.277V38.223C27.9707 38.2655 28.016 38.2797 28.0462 38.2655L47.5799 23.7477C47.595 23.7336 47.595 23.7194 47.595 23.7052L47.6101 14.4331C47.6101 14.3906 47.5648 14.3764 47.5346 14.3906L27.9858 29.2486C27.9858 29.2486 27.9707 29.2628 27.9707 29.277Z" fill="#1926A3"/>
<path d="M28.0772 38.237L37.5645 40.1084C37.5796 40.2219 37.5947 40.1084 37.6098 40.0943L57.0377 25.6757C57.0679 25.6474 57.0528 25.6048 57.0226 25.5907L47.641 23.7192C47.6259 23.7192 47.6108 23.7192 47.5957 23.7334L28.0621 38.2654C28.0319 38.2937 28.0319 38.3363 28.0772 38.237Z" fill="#EBEBEB"/>
<path d="M37.5635 40.1078L56.9309 25.7601C57.0065 25.7034 57.1122 25.7601 57.1122 25.8452V34.8621L37.5635 49.2806V40.1078Z" fill="#CBCBCA"/>
<path d="M28.0757 38.2373L18.9963 45.1843C18.9811 45.1985 18.9811 45.2126 19.0114 45.2268L28.0455 47.1124L28.0757 38.2373Z" fill="#EBEBEB"/>
<path d="M28.1366 47.1123L37.5635 49.2815L28.1064 56.2568C28.0913 56.271 28.0762 56.2568 28.0762 56.2426L28.1366 47.1123Z" fill="#CBCBCA"/>
<path d="M18.9512 36.1245L28.0759 38.2511L19.0116 45.184C18.9814 45.1981 18.9512 45.184 18.9512 45.1556V36.1245Z" fill="#1926A3"/>
<path d="M18.8742 27.0933L9.44727 25.0518L9.5228 34.0545L18.9497 36.1244L18.8742 27.0933Z" fill="#3741E7"/>
</svg>
